<?xml version="1.0" encoding="UTF-8" standalone="no"?>
<!-- Created with Inkscape (http://www.inkscape.org/) -->

<svg
   xmlns:dc="http://purl.org/dc/elements/1.1/"
   xmlns:cc="http://creativecommons.org/ns#"
   xmlns:rdf="http://www.w3.org/1999/02/22-rdf-syntax-ns#"
   xmlns:svg="http://www.w3.org/2000/svg"
   xmlns="http://www.w3.org/2000/svg"
   xmlns:sodipodi="http://sodipodi.sourceforge.net/DTD/sodipodi-0.dtd"
   xmlns:inkscape="http://www.inkscape.org/namespaces/inkscape"
   width="141.26271mm"
   height="107.22365mm"
   viewBox="0 0 500.53716 379.92631"
   id="svg2"
   version="1.1"
   inkscape:version="0.91 r13725"
   sodipodi:docname="TF_search.svg">
  <sodipodi:namedview
     id="base"
     pagecolor="#ffffff"
     bordercolor="#666666"
     borderopacity="1.0"
     inkscape:pageopacity="0.0"
     inkscape:pageshadow="2"
     inkscape:zoom="1.7469907"
     inkscape:cx="19.843253"
     inkscape:cy="-118.12893"
     inkscape:document-units="px"
     inkscape:current-layer="layer1"
     showgrid="false"
     inkscape:window-width="3840"
     inkscape:window-height="2121"
     inkscape:window-x="3840"
     inkscape:window-y="39"
     inkscape:window-maximized="1"
     showguides="false"
     fit-margin-top="0"
     fit-margin-left="0"
     fit-margin-right="0"
     fit-margin-bottom="0">
    <sodipodi:guide
       position="-557.53581,294.74802"
       orientation="1,0"
       id="guide4304" />
  </sodipodi:namedview>
  <defs
     id="defs4">
    <marker
       inkscape:stockid="Arrow1Mend"
       orient="auto"
       refY="0"
       refX="0"
       id="Arrow1Mend"
       style="overflow:visible"
       inkscape:isstock="true">
      <path
         id="path4342"
         d="M 0,0 5,-5 -12.5,0 5,5 0,0 Z"
         style="fill:#9b5858;fill-opacity:1;fill-rule:evenodd;stroke:#9b5858;stroke-width:1pt;stroke-opacity:1"
         transform="matrix(-0.4,0,0,-0.4,-4,0)"
         inkscape:connector-curvature="0" />
    </marker>
    <inkscape:path-effect
       effect="spiro"
       id="path-effect4138"
       is_visible="true" />
  </defs>
  <metadata
     id="metadata7">
    <rdf:RDF>
      <cc:Work
         rdf:about="">
        <dc:format>image/svg+xml</dc:format>
        <dc:type
           rdf:resource="http://purl.org/dc/dcmitype/StillImage" />
        <dc:title></dc:title>
      </cc:Work>
    </rdf:RDF>
  </metadata>
  <g
     inkscape:label="Layer 1"
     inkscape:groupmode="layer"
     id="layer1"
     transform="translate(-98.678671,-32.326767)">
    <path
       style="fill:none;fill-rule:evenodd;stroke:#000000;stroke-width:6;stroke-linecap:round;stroke-linejoin:miter;stroke-miterlimit:4;stroke-dasharray:none;stroke-opacity:0.4163424"
       d="M 101.71429,203.79078 C 177.51972,153.33438 265.49826,121.30624 356,111.21935 c 46.45245,-5.17737 94.62571,-4.45484 138.4125,11.89607 21.8934,8.17545 42.45382,20.25334 59.40099,36.34534 16.94717,16.092 30.20034,36.27008 37.04365,58.61573 9.37938,30.62674 6.22178,64.73516 -7.82252,93.52279 -14.0443,28.78764 -38.68511,52.09171 -67.84789,65.33943 -29.16279,13.24771 -62.60773,16.50652 -93.97717,10.0313 -31.36944,-6.47521 -60.56614,-22.5278 -83.49527,-44.89352 -26.61003,-25.95618 -44.7773,-60.42837 -51.17567,-97.04637 -6.39837,-36.618 -1.00057,-75.19933 15.17567,-108.66792 21.6994,-44.895991 62.98474,-79.891775 110.82858,-93.944562 47.84384,-14.052786 101.49668,-6.94243 144.02856,19.087424"
       id="path4136"
       inkscape:path-effect="#path-effect4138"
       inkscape:original-d="M 101.71429,203.79078 C 177.14286,167.21935 185.14286,90.07649 356,111.21935 c 170.85714,21.14285 188.57143,24 234.85714,106.85714 46.28572,82.85714 -121.14285,145.71429 -253.14285,124 -132,-21.71429 -143.42858,-134.85714 -36,-205.71429 C 409.14286,65.505062 459.42857,57.505062 556.57143,61.505062"
       inkscape:connector-curvature="0" />
    <ellipse
       style="opacity:1;fill:#ff2a2a;fill-opacity:1;stroke:#ff2a2a;stroke-width:6;stroke-linecap:round;stroke-linejoin:miter;stroke-miterlimit:4;stroke-dasharray:none;stroke-dashoffset:0;stroke-opacity:0.4163424"
       id="path4142"
       cx="494.4588"
       cy="-67.535248"
       rx="34"
       ry="12"
       transform="matrix(0.9377768,0.34723863,-0.34723863,0.9377768,0,0)" />
    <path
       style="fill:none;fill-rule:evenodd;stroke:#675e5e;stroke-width:2;stroke-linecap:butt;stroke-linejoin:miter;stroke-miterlimit:4;stroke-dasharray:none;stroke-opacity:1"
       d="m 419.14286,110.64792 c 42.28571,4.57143 14.58476,47.65597 44.57142,56 29.07316,8.08984 36.57143,-40 66.85715,-28.57143"
       id="path4146"
       inkscape:connector-curvature="0"
       sodipodi:nodetypes="csc" />
    <g
       id="g4241"
       transform="matrix(0.6,0,0,0.6,131.62383,-24.072963)">
      <g
         word-spacing="normal"
         letter-spacing="normal"
         font-size-adjust="none"
         font-stretch="normal"
         font-weight="normal"
         font-variant="normal"
         font-style="normal"
         stroke-miterlimit="10.433"
         xml:space="preserve"
         transform="matrix(1.0629921,0,0,-1.0629921,-186.02362,789.27165)"
         id="content"
         style="font-style:normal;font-variant:normal;font-weight:normal;font-stretch:normal;letter-spacing:normal;word-spacing:normal;text-anchor:start;fill:none;fill-opacity:1;fill-rule:evenodd;stroke:#000000;stroke-linecap:butt;stroke-linejoin:miter;stroke-miterlimit:10.43299961;stroke-dasharray:none;stroke-dashoffset:0;stroke-opacity:1"><path
           id="path4244"
           d="m 469.33,422.78 0.1,0 0.1,0 0.12,0 0.12,0 0.14,0 0.14,0.01 0.15,0 0.15,0.01 0.16,0.01 0.17,0.01 0.18,0.01 0.17,0.01 0.19,0.01 0.19,0.01 0.38,0.04 0.4,0.04 0.4,0.05 0.41,0.06 0.4,0.07 0.4,0.08 0.2,0.04 0.2,0.05 0.19,0.05 0.19,0.06 0.18,0.05 0.18,0.06 c 2.58,0.91 3.06,2.58 3.06,3.63 0,1.92 -1.92,3.06 -4.32,3.06 l 0,-0.97 c 1.53,0 2.82,-0.77 2.82,-2.09 0,-3.38 -5.89,-3.38 -7.39,-3.38 l -1.7,0 c 1.42,5.05 5.3,5.47 6.27,5.47 l 0,0.97 c -4.18,0 -9.83,-3.2 -9.83,-9.16 0,-3.51 2.2,-6.54 6.28,-6.54 5.89,0 8.64,3.43 8.64,3.93 0,0.21 -0.31,0.6 -0.59,0.6 -0.21,0 -0.29,-0.08 -0.57,-0.36 -2.72,-3.21 -6.79,-3.21 -7.42,-3.21 -2.09,0 -3.48,1.4 -3.48,4.22 0,0.49 0,1.19 0.42,3.1 z"
           inkscape:connector-curvature="0"
           style="fill:#000000;stroke-width:0" /><path
           id="path4246"
           d="m 502.28,435.37 0.04,0 0.04,0 0.04,0 0.04,0 0.04,0 0.05,0.01 0.04,0 0.04,0 0.05,0.01 0.04,0 0.05,0.01 0.04,0.01 0.05,0.01 0.04,0.01 0.04,0.01 0.05,0.02 0.04,0.02 0.04,0.02 0.03,0.02 0.04,0.02 0.04,0.03 0.03,0.03 0.03,0.03 0.01,0.02 0.02,0.02 0.01,0.02 0.01,0.02 0.01,0.02 0.01,0.02 0.01,0.02 0.01,0.02 0.01,0.03 0.01,0.02 0.01,0.03 0,0.02 0.01,0.03 0,0.03 0,0.03 0.01,0.03 0,0.03 0,0.03 c 0,0.69 -0.69,0.69 -1.08,0.69 l -16.86,0 c -0.4,0 -1.08,0 -1.08,-0.69 0,-0.7 0.68,-0.7 1.08,-0.7 z"
           inkscape:connector-curvature="0"
           style="fill:#000000;stroke-width:0" /><path
           id="path4248"
           d="m 522,447.11 -0.03,0.04 -0.02,0.04 -0.03,0.03 -0.02,0.04 -0.02,0.03 -0.03,0.04 -0.02,0.03 -0.02,0.03 -0.03,0.02 -0.02,0.03 -0.02,0.02 -0.03,0.03 -0.02,0.02 -0.03,0.02 -0.02,0.02 -0.03,0.01 -0.03,0.02 -0.03,0.02 -0.03,0.01 -0.03,0.01 -0.03,0.01 -0.03,0.01 -0.04,0.01 -0.03,0.01 -0.04,0 -0.04,0.01 -0.04,0 -0.04,0.01 -0.04,0 -0.05,0 -0.05,0 -0.05,0 c -0.53,0 -0.73,-0.12 -1,-0.57 l 0.09,-1.96 8.05,-13.04 -16.11,0 8.06,13.04 -0.09,1.96 -10.26,-16.63 c -0.18,-0.27 -0.18,-0.3 -0.18,-0.36 0,-0.28 0.22,-0.28 0.63,-0.28 l 21.62,0 c 0.4,0 0.61,0 0.61,0.28 0,0.06 0,0.09 -0.17,0.36 z"
           inkscape:connector-curvature="0"
           style="fill:#000000;stroke-width:0" /><path
           id="path4250"
           d="m 547.34,439.26 -0.04,-0.01 -0.04,-0.01 -0.04,-0.02 -0.03,-0.01 -0.04,-0.02 -0.03,-0.01 -0.07,-0.03 -0.06,-0.04 -0.06,-0.03 -0.06,-0.04 -0.05,-0.04 -0.04,-0.05 -0.05,-0.04 -0.04,-0.04 -0.04,-0.05 -0.04,-0.04 -0.03,-0.05 -0.03,-0.05 -0.03,-0.04 -0.02,-0.05 -0.02,-0.05 -0.02,-0.04 -0.02,-0.05 -0.02,-0.04 -0.01,-0.05 -0.01,-0.04 -0.01,-0.04 -0.01,-0.04 -0.01,-0.04 0,-0.04 -0.01,-0.03 0,-0.04 0,-0.03 0,-0.02 -0.01,-0.03 c 0,-0.62 0.52,-0.89 0.94,-0.89 0.3,0 1.33,0.22 1.33,1.53 0,1.67 -1.97,2.21 -3.84,2.21 -4.21,0 -5,-2.58 -5,-3.47 0,-0.89 0.51,-1.43 0.97,-1.77 0.68,-0.5 1.43,-0.59 2.76,-0.83 1.56,-0.25 3.31,-0.51 3.31,-1.79 0,-0.02 0,-2.58 -4.59,-2.58 -0.94,0 -2.48,0.06 -3.28,0.84 0.89,0.2 1.3,0.92 1.3,1.52 0,0.7 -0.53,1.01 -1.08,1.01 -0.85,0 -1.6,-0.67 -1.6,-1.78 0,-2.45 3.9,-2.45 4.61,-2.45 5.11,0 5.99,2.95 5.99,3.97 0,2.23 -2.74,2.67 -4.03,2.89 -1.79,0.26 -3,0.47 -3,1.5 0,0.01 0,2.08 3.59,2.08 0.64,0 1.97,-0.05 2.61,-0.74 z"
           inkscape:connector-curvature="0"
           style="fill:#000000;stroke-width:0" /><path
           id="path4252"
           d="m 566.07,444.73 -1.05,0 c -0.07,-0.48 -0.32,-2.01 -0.72,-2.26 -0.2,-0.16 -2.29,-0.16 -2.67,-0.16 l -4.87,0 c 1.64,1.22 3.48,2.61 4.98,3.61 2.24,1.55 4.33,3 4.33,5.64 0,3.19 -3.02,4.96 -6.58,4.96 -3.36,0 -5.83,-1.96 -5.83,-4.4 0,-1.29 1.1,-1.51 1.46,-1.51 0.67,0 1.47,0.45 1.47,1.47 0,0.89 -0.66,1.39 -1.43,1.47 0.69,1.12 2.14,1.87 3.82,1.87 2.4,0 4.42,-1.45 4.42,-3.89 0,-2.09 -1.44,-3.69 -3.36,-5.31 l -6.08,-5.16 c -0.25,-0.22 -0.26,-0.22 -0.3,-0.39 l 0,-0.75 11.58,0 z"
           inkscape:connector-curvature="0"
           style="fill:#000000;stroke-width:0" /><path
           id="path4254"
           d="m 585.89,447.28 0,0.01 0.01,0.02 0.01,0.02 0.01,0.01 0,0.02 0.01,0.02 0.01,0.01 0,0.01 0.02,0.03 0.01,0.03 0.01,0.03 0.01,0.02 0.01,0.02 0,0.02 0.01,0.02 0.01,0.02 0,0.02 0.01,0.02 0,0.02 0.01,0.01 0,0.02 0,0.01 0.01,0.01 0,0.02 0,0.01 0,0.01 0.01,0.01 0,0.01 0,0.01 0,0.01 0,0.01 0,0.02 0,0.01 c 0,0.38 -0.33,0.71 -0.71,0.71 -0.38,0 -0.59,-0.28 -0.73,-0.63 l -10.5,-23.04 c -0.17,-0.38 -0.17,-0.47 -0.17,-0.55 0,-0.38 0.33,-0.7 0.7,-0.7 0.39,0 0.6,0.28 0.75,0.62 z"
           inkscape:connector-curvature="0"
           style="fill:#000000;stroke-width:0" /><path
           id="path4256"
           d="m 604.57,433.9 0,1.1 -3.12,0 0,10.96 c 0,0.6 -0.02,0.74 -0.67,0.74 -0.5,0 -0.52,-0.02 -0.8,-0.38 l -9.22,-11.32 0,-1.1 8.3,0 0.2,1.1 -7.33,0 7.33,9.01 0,-9.01 -0.2,-1.1 0,-1.94 c 0,-0.78 0,-1.03 -2.16,-1.03 l -0.87,0 0,-1.09 c 1.17,0.05 2.78,0.09 4.23,0.09 1.44,0 3.03,-0.04 4.24,-0.09 l 0,1.09 -0.88,0 c -2.17,0 -2.17,0.25 -2.17,1.03 l 0,1.94 z"
           inkscape:connector-curvature="0"
           style="fill:#000000;stroke-width:0" /><path
           id="path4258"
           d="m 612.24,431.9 -0.02,-0.07 -0.01,-0.06 -0.02,-0.06 -0.02,-0.06 -0.02,-0.06 -0.02,-0.05 -0.02,-0.05 -0.02,-0.05 -0.02,-0.05 -0.03,-0.04 -0.03,-0.04 -0.03,-0.03 -0.03,-0.04 -0.04,-0.03 -0.05,-0.03 -0.04,-0.03 -0.06,-0.02 -0.06,-0.03 -0.06,-0.02 -0.07,-0.02 -0.04,-0.01 -0.04,0 -0.04,-0.01 -0.04,-0.01 -0.05,-0.01 -0.04,0 -0.05,-0.01 -0.05,0 -0.05,-0.01 -0.06,0 -0.06,-0.01 -0.05,0 -0.07,-0.01 -0.06,0 -0.06,0 -0.07,-0.01 -0.07,0 -0.08,0 -0.07,0 -0.08,0 -0.08,0 -0.08,0 -0.09,0 -0.09,-0.01 c -0.62,0 -1.01,0 -1.01,-0.7 0,-0.42 0.39,-0.42 0.81,-0.42 l 10.01,0 -0.42,1.12 -4.14,0 c -0.19,0 -0.55,0 -0.8,0.05 0.04,0.22 0.04,0.27 0.08,0.45 l 3.36,13.46 c 0.21,0.76 0.21,0.81 1.25,0.81 l 3.94,0 c 1.75,0 3.42,-0.45 4.45,-1.37 0.92,-0.85 1.49,-1.86 1.49,-3.61 0,-1.57 -0.61,-4.74 -2.47,-6.83 -1.88,-2.08 -4.64,-2.96 -7.16,-2.96 l 0.42,-1.12 c 5.86,0 11.82,4.73 11.82,10.27 0,4.1 -3.3,6.75 -7.58,6.75 l -10.2,0 c -0.5,0 -0.88,0 -0.88,-0.71 0,-0.42 0.3,-0.42 0.92,-0.42 0.25,0 1.06,0 1.6,-0.14 0,-0.31 0,-0.36 -0.08,-0.63 z"
           inkscape:connector-curvature="0"
           style="fill:#000000;stroke-width:0" /><path
           id="path4260"
           d="m 643.64,438.24 0,0.04 0,0.03 0,0.03 0,0.03 0,0.03 0,0.03 0,0.03 0,0.03 -0.01,0.03 0,0.02 0,0.03 0,0.02 0,0.02 -0.01,0.02 0,0.03 0,0.02 -0.01,0.01 0,0.02 -0.01,0.04 -0.01,0.03 -0.02,0.03 -0.01,0.03 -0.02,0.02 -0.02,0.02 -0.02,0.02 -0.03,0.01 -0.02,0.02 -0.03,0.01 -0.03,0.01 -0.04,0.01 -0.04,0.01 -0.04,0.01 -0.02,0 -0.02,0 -0.03,0 -0.02,0 -0.03,0.01 -0.02,0 -0.03,0 -0.03,0 -0.03,0 -0.03,0 -0.03,0 -0.03,0 -0.04,0 -0.03,0 -0.03,0 -0.04,0 -0.04,0 -0.04,0 c -1.76,-1.59 -4.53,-1.59 -5.03,-1.59 l -0.42,0 0,-1.1 0.42,0 c 0.58,0 2.19,0.07 3.64,0.69 l 0,-12.45 c 0,-0.77 0,-1.05 -2.64,-1.05 l -1.25,0 0,-1.09 c 1.38,0.09 3.6,0.09 5.03,0.09 1.46,0 3.68,0 5.04,-0.09 l 0,1.09 -1.24,0 c -2.64,0 -2.64,0.28 -2.64,1.05 z"
           inkscape:connector-curvature="0"
           style="fill:#000000;stroke-width:0" /><path
           id="path4262"
           d="m 661.11,439.45 2.94,0 c 0.51,0 0.54,0.03 0.67,0.12 0.12,0.11 0.2,0.43 0.2,0.58 0,0.42 -0.37,0.42 -0.8,0.42 l -2.74,0 0.53,2.07 c 0.14,0.65 0.43,1.78 0.43,1.92 0,0.42 -0.31,0.87 -0.92,0.87 -0.42,0 -1.01,-0.28 -1.22,-0.95 -0.12,-0.42 0.18,0.75 -1,-3.91 l -2.95,0 c -0.5,0 -0.87,0 -0.87,-0.7 0,-0.42 0.34,-0.42 0.79,-0.42 l 2.77,0 -1.47,-5.84 c -0.13,-0.55 -0.33,-1.33 -0.33,-1.63 0,-1.42 1.33,-2.42 3.06,-2.42 3.02,0 4.86,3.37 4.86,3.87 0,0.35 -0.42,0.35 -0.51,0.35 -0.41,0 -0.46,-0.1 -0.58,-0.42 -0.83,-1.8 -2.38,-2.94 -3.66,-2.94 -0.79,0 -1.04,0.56 -1.04,1.31 0,0.41 0.01,0.47 0.06,0.7 z"
           inkscape:connector-curvature="0"
           style="fill:#000000;stroke-width:0" /><polyline
           id="polyline4264"
           points="462,407 670.32,407 670.32,409.04 462,409.04 "
           style="fill:#000000;fill-rule:nonzero;stroke-width:0" /><path
           id="path4266"
           d="m 518.24,371.94 -6.83,13.56 c -0.17,0.34 -0.28,0.55 -0.56,0.55 -0.14,0 -0.21,0 -0.56,-0.27 l -3.72,-2.48 c -0.49,-0.32 -0.49,-0.49 -0.49,-0.6 0,-0.2 0.17,-0.48 0.49,-0.48 0.14,0 0.2,0 0.65,0.31 0.39,0.28 1.39,0.99 1.82,1.27 l 7.64,-15.07 c 0.23,-0.51 0.31,-0.59 0.79,-0.59 0.31,0 0.69,0 1.05,0.67 l 17.51,32.61 c 0.29,0.46 0.29,0.52 0.29,0.7 0,0.55 -0.46,0.86 -0.83,0.86 -0.53,0 -0.71,-0.31 -0.91,-0.73 z"
           inkscape:connector-curvature="0"
           style="fill:#000000;stroke-width:0" /><polyline
           id="polyline4268"
           points="535,401 628.12,401 628.12,402.8 535,402.8 "
           style="fill:#000000;fill-rule:nonzero;stroke-width:0" /><path
           id="path4270"
           d="m 553.88,377.48 0,1.25 -3.88,0 0,15.55 c 0,0.72 0,0.97 -0.76,0.97 -0.42,0 -0.56,0 -0.91,-0.49 l -11.53,-16.03 0,-1.25 10.25,0 0.23,1.25 -9.2,0 9.2,12.75 0,-12.75 -0.23,-1.25 0,-2.86 c 0,-1.19 0,-1.61 -2.83,-1.61 l -0.94,0 0,-1.25 c 1.74,0.06 3.97,0.14 5.22,0.14 1.3,0 3.52,-0.08 5.27,-0.14 l 0,1.25 -0.94,0 c -2.83,0 -2.83,0.42 -2.83,1.61 l 0,2.86 z"
           inkscape:connector-curvature="0"
           style="fill:#000000;stroke-width:0" /><path
           id="path4272"
           d="m 566.08,384.42 4.14,0 c -0.53,-2.1 -1.29,-5.27 -1.29,-8.02 0,-1.4 0.18,-2.34 0.39,-3.11 0.56,-1.73 1.01,-1.87 1.56,-1.87 0.81,0 1.64,0.73 1.64,1.56 0,0.28 -0.06,0.42 -0.28,0.77 -0.66,1.29 -1.28,3.28 -1.28,6.14 0,0.65 0,2.04 0.48,4.53 l 4.36,0 c 0.63,0 0.91,0 1.28,0.26 0.49,0.36 0.6,0.91 0.6,1.08 0,1.02 -0.91,1.02 -1.5,1.02 l -13.13,0 c -1.44,0 -2.4,-0.32 -3.98,-1.78 -0.91,-0.8 -2.27,-2.68 -2.27,-2.99 0,-0.42 0.45,-0.42 0.6,-0.42 0.38,0 0.42,0.06 0.62,0.37 1.78,2.46 3.94,2.46 4.7,2.46 l 2.13,0 c -1.08,-3.85 -2.95,-7.96 -4,-10.05 -0.2,-0.45 -0.57,-1.19 -0.66,-1.31 -0.04,-0.14 -0.11,-0.28 -0.11,-0.53 0,-0.57 0.42,-1.11 1.22,-1.11 1.39,0 1.78,1.56 2.61,4.7 z"
           inkscape:connector-curvature="0"
           style="fill:#000000;stroke-width:0" /><path
           id="path4274"
           d="m 586.29,374.48 -0.02,-0.11 -0.03,-0.1 -0.02,-0.1 -0.02,-0.09 -0.03,-0.09 -0.03,-0.09 -0.02,-0.08 -0.04,-0.07 -0.03,-0.07 -0.04,-0.07 -0.04,-0.06 -0.05,-0.06 -0.05,-0.05 -0.06,-0.05 -0.06,-0.05 -0.07,-0.04 -0.08,-0.04 -0.08,-0.03 -0.09,-0.04 -0.11,-0.03 -0.05,-0.01 -0.06,-0.01 -0.06,-0.02 -0.06,-0.01 -0.06,-0.01 -0.07,-0.01 -0.07,-0.01 -0.07,-0.01 -0.08,0 -0.08,-0.01 -0.08,-0.01 -0.08,0 -0.09,-0.01 -0.09,-0.01 -0.09,0 -0.1,0 -0.1,-0.01 -0.1,0 -0.11,0 -0.11,0 -0.11,-0.01 -0.12,0 -0.12,0 -0.13,0 c -0.63,0 -1.05,0 -1.05,-0.76 0,-0.49 0.42,-0.49 1.05,-0.49 l 12.44,0 -0.63,1.25 -4.73,0 c -1.08,0 -1.11,0.05 -1.11,0.36 0,0.03 0,0.2 0.12,0.72 l 4.78,19.03 c 0.29,1.08 0.32,1.19 1.79,1.19 l 4.45,0 c 3.91,0 7.19,-1.95 7.19,-6.69 0,-0.81 -0.36,-6.83 -3.85,-10.81 -1.36,-1.56 -4.34,-3.8 -8.64,-3.8 l 0.63,-1.25 c 7.73,0 15.15,7.11 15.15,14.7 0,5.1 -3.51,9.1 -9.18,9.1 l -12.69,0 c -0.7,0 -1.11,0 -1.11,-0.77 0,-0.48 0.38,-0.48 1.14,-0.48 0.56,0 0.7,0 1.33,-0.08 0.7,-0.06 0.76,-0.14 0.76,-0.48 0,-0.07 0,-0.24 -0.14,-0.77 z"
           inkscape:connector-curvature="0"
           style="fill:#000000;stroke-width:0" /><path
           id="path4276"
           d="m 621.89,385.53 3.55,0 c 0.65,0 1.11,0 1.11,0.76 0,0.49 -0.46,0.49 -1.03,0.49 l -3.32,0 1.28,5.15 c 0.04,0.18 0.11,0.35 0.11,0.49 0,0.64 -0.48,1.12 -1.18,1.12 -0.88,0 -1.39,-0.59 -1.64,-1.5 -0.24,-0.87 0.21,0.8 -1.33,-5.26 l -3.55,0 c -0.66,0 -1.11,0 -1.11,-0.77 0,-0.48 0.41,-0.48 1.05,-0.48 l 3.29,0 -2.04,-8.22 c -0.22,-0.88 -0.53,-2.13 -0.53,-2.58 0,-2.06 1.75,-3.31 3.73,-3.31 3.88,0 6.06,4.87 6.06,5.33 0,0.45 -0.45,0.45 -0.56,0.45 -0.4,0 -0.45,-0.08 -0.72,-0.66 -0.98,-2.2 -2.76,-4.15 -4.67,-4.15 -0.73,0 -1.22,0.45 -1.22,1.7 0,0.36 0.14,1.09 0.21,1.44 z"
           inkscape:connector-curvature="0"
           style="fill:#000000;stroke-width:0" /></g>    </g>
    <path
       style="fill:none;fill-rule:evenodd;stroke:#9b5858;stroke-width:3.38385057;stroke-linecap:butt;stroke-linejoin:miter;stroke-miterlimit:4;stroke-dasharray:none;stroke-opacity:1;marker-end:url(#Arrow1Mend)"
       d="m 485.37784,106.25032 c 43.9118,87.14856 53.59822,149.12087 47.1406,191.08128 -6.45762,41.96041 -69.74225,85.85746 -101.38457,98.76836"
       id="path4327"
       inkscape:connector-curvature="0" />
    <ellipse
       style="opacity:1;fill:#ff2a2a;fill-opacity:1;stroke:#ff2a2a;stroke-width:6;stroke-linecap:round;stroke-linejoin:miter;stroke-miterlimit:4;stroke-dasharray:none;stroke-dashoffset:0;stroke-opacity:0.4163424"
       id="path4142-0"
       cx="499.3186"
       cy="234.12805"
       rx="34"
       ry="12"
       transform="matrix(0.9377768,0.34723863,-0.34723863,0.9377768,0,0)" />
    <flowRoot
       xml:space="preserve"
       id="flowRoot5104"
       style="font-style:normal;font-variant:normal;font-weight:normal;font-stretch:normal;font-size:16.25px;line-height:125%;font-family:Sans;-inkscape-font-specification:'Sans, Normal';text-align:start;letter-spacing:0px;word-spacing:0px;writing-mode:lr-tb;text-anchor:start;fill:#000000;fill-opacity:1;stroke:none;stroke-width:1px;stroke-linecap:butt;stroke-linejoin:miter;stroke-opacity:1"
       transform="translate(-2.2896515,15.455148)"><flowRegion
         id="flowRegion5106"><rect
           id="rect5108"
           width="84.71711"
           height="32.055122"
           x="102.46191"
           y="131.34987" /></flowRegion><flowPara
         id="flowPara5110">genome</flowPara></flowRoot>    <flowRoot
       xml:space="preserve"
       id="flowRoot5112"
       style="font-style:normal;font-variant:normal;font-weight:normal;font-stretch:normal;font-size:16.25px;line-height:125%;font-family:Sans;-inkscape-font-specification:'Sans, Normal';text-align:start;letter-spacing:0px;word-spacing:0px;writing-mode:lr-tb;text-anchor:start;fill:#000000;fill-opacity:1;stroke:none;stroke-width:1px;stroke-linecap:butt;stroke-linejoin:miter;stroke-opacity:1"
       transform="translate(-30.910295,-50.944746)"><flowRegion
         id="flowRegion5114"><rect
           id="rect5116"
           width="129.93773"
           height="46.937855"
           x="272.46854"
           y="413.54941" /></flowRegion><flowPara
         id="flowPara5118">transcription factor</flowPara></flowRoot>    <path
       style="fill:none;fill-rule:evenodd;stroke:#948b8b;stroke-width:2;stroke-linecap:butt;stroke-linejoin:miter;stroke-miterlimit:4;stroke-dasharray:none;stroke-opacity:1"
       d="m 344.01325,343.42539 c 16.02756,16.59997 49.22751,-17.17239 68.68955,-8.5862 19.46203,8.5862 2.28965,48.08269 20.60686,52.66199"
       id="path5120"
       inkscape:connector-curvature="0" />
    <flowRoot
       xml:space="preserve"
       id="flowRoot5122"
       style="font-style:normal;font-variant:normal;font-weight:normal;font-stretch:normal;font-size:16.25px;line-height:125%;font-family:Sans;-inkscape-font-specification:'Sans, Normal';text-align:start;letter-spacing:0px;word-spacing:0px;writing-mode:lr-tb;text-anchor:start;fill:#000000;fill-opacity:1;stroke:none;stroke-width:1px;stroke-linecap:butt;stroke-linejoin:miter;stroke-opacity:1"
       transform="translate(-291.93057,115.05499)"><flowRegion
         id="flowRegion5124"><rect
           id="rect5126"
           width="135.66185"
           height="46.937855"
           x="605.04041"
           y="19.729351" /></flowRegion><flowPara
         id="flowPara5128">1D diffusion</flowPara></flowRoot>    <flowRoot
       xml:space="preserve"
       id="flowRoot5122-3"
       style="font-style:normal;font-variant:normal;font-weight:normal;font-stretch:normal;font-size:16.25px;line-height:125%;font-family:Sans;-inkscape-font-specification:'Sans, Normal';text-align:start;letter-spacing:0px;word-spacing:0px;writing-mode:lr-tb;text-anchor:start;fill:#000000;fill-opacity:1;stroke:none;stroke-width:1px;stroke-linecap:butt;stroke-linejoin:miter;stroke-opacity:1"
       transform="translate(-174.92344,237.71651)"><flowRegion
         id="flowRegion5124-4"><rect
           id="rect5126-0"
           width="135.66185"
           height="46.937855"
           x="605.04041"
           y="19.729351" /></flowRegion><flowPara
         id="flowPara5128-3">3D diffusion</flowPara></flowRoot>  </g>
</svg>
